<?xml version="1.0" encoding="UTF-8" standalone="no"?>
<!-- Created with Inkscape (http://www.inkscape.org/) -->

<svg
   version="1.1"
   id="svg1"
   width="177"
   height="45"
   viewBox="0 0 177 45"
   sodipodi:docname="jira-logo-scaled_whight.svg"
   inkscape:version="1.4.2 (ebf0e940, 2025-05-08)"
   xmlns:inkscape="http://www.inkscape.org/namespaces/inkscape"
   xmlns:sodipodi="http://sodipodi.sourceforge.net/DTD/sodipodi-0.dtd"
   xmlns="http://www.w3.org/2000/svg"
   xmlns:svg="http://www.w3.org/2000/svg">
  <defs
     id="defs1">
    <inkscape:path-effect
       effect="fillet_chamfer"
       id="path-effect1"
       is_visible="true"
       lpeversion="1"
       nodesatellites_param="F,0,0,1,0,0,0,1 @ F,0,0,1,0,12.729115,0,1 @ F,0,0,1,0,0,0,1"
       radius="0"
       unit="px"
       method="auto"
       mode="F"
       chamfer_steps="1"
       flexible="false"
       use_knot_distance="true"
       apply_no_radius="true"
       apply_with_radius="true"
       only_selected="false"
       hide_knots="false" />
  </defs>
  <sodipodi:namedview
     id="namedview1"
     pagecolor="#ffffff"
     bordercolor="#000000"
     borderopacity="0.25"
     inkscape:showpageshadow="2"
     inkscape:pageopacity="0.0"
     inkscape:pagecheckerboard="0"
     inkscape:deskcolor="#d1d1d1"
     inkscape:zoom="2.0576087"
     inkscape:cx="104.24723"
     inkscape:cy="11.178024"
     inkscape:window-width="1440"
     inkscape:window-height="847"
     inkscape:window-x="0"
     inkscape:window-y="25"
     inkscape:window-maximized="0"
     inkscape:current-layer="layer3" />
  <g
     inkscape:groupmode="layer"
     id="layer1"
     inkscape:label="Image 1"
     style="display:inline">
    <path
       style="fill:#0bef34;fill-opacity:1;stroke-width:8.48891;stroke-linejoin:round;paint-order:markers fill stroke"
       d="m 12.518611,1.9115345 29.55494,9.6442445 a 6.6298938,6.6298938 0 0 1 2.215889,11.37237 L 21.645966,42.01195 A 9.7789947,9.7789947 0 0 1 5.7471925,36.413514 L 0.9890754,12.11313 A 8.9266784,8.9266784 0 0 1 12.518611,1.9115345 Z"
       id="path1"
       sodipodi:nodetypes="cccc" />
    <path
       id="path1-9"
       style="display:inline;fill:#000000;fill-opacity:1;stroke-width:8.48891;stroke-linejoin:round;paint-order:markers fill stroke"
       d="m 27.073209,6.6615311 c -3.204153,3.2257721 -5.192837,7.6591729 -5.192837,12.5278779 0,6.464189 3.506474,12.164213 8.707735,15.28606 l 7.976607,-6.722722 c -4.276907,-0.540231 -7.508685,-4.122512 -7.508685,-8.563338 0,-4.61464 3.489086,-8.302311 8.014991,-8.612687 z" />
  </g>
  <g
     inkscape:groupmode="layer"
     id="layer2"
     inkscape:label="Image 2">
    <path
       style="fill:#000000;stroke-width:8.48891;stroke-linejoin:round;paint-order:markers fill stroke"
       d="M 9.3566696,9.5363649 19.744196,8.3973846 19.68551,35.425207 9.5849713,35.477449 Z"
       id="path2"
       sodipodi:nodetypes="ccccc" />
  </g>
  <g
     inkscape:groupmode="layer"
     id="layer3"
     inkscape:label="Image 3">
    <path
       style="font-weight:800;font-size:44.7918px;line-height:1.5;font-family:Raleway;-inkscape-font-specification:'Raleway Ultra-Bold';letter-spacing:0px;word-spacing:0px;stroke-width:3.43078;stroke-linejoin:round;paint-order:markers fill stroke;fill:#f9f9f9"
       d="m 59.232066,21.786689 q 0,-2.418757 0.851044,-4.613556 0.851044,-2.23959 2.463549,-3.896886 1.612505,-1.702089 3.941679,-2.687508 2.373965,-0.9854201 5.375016,-0.9854201 4.076054,0 6.853145,1.7468801 2.777092,1.702089 4.165638,4.47918 l -6.987521,2.105215 q -1.388546,-2.23959 -4.076054,-2.23959 -2.23959,0 -3.762511,1.657297 -1.47813,1.657296 -1.47813,4.434388 0,1.388546 0.403126,2.553133 0.403127,1.119795 1.119795,1.926047 0.716669,0.806252 1.657297,1.25417 0.98542,0.447918 2.060423,0.447918 1.343754,0 2.463549,-0.627085 1.119795,-0.671877 1.657297,-1.702088 l 6.987521,2.150006 q -1.298963,2.7323 -4.165638,4.47918 -2.821883,1.746881 -6.897937,1.746881 -2.956259,0 -5.330225,-0.98542 -2.329173,-1.030211 -3.98647,-2.687508 -1.612505,-1.702088 -2.463549,-3.896887 -0.851044,-2.23959 -0.851044,-4.658347 z m 41.835524,-5.598975 q -2.59792,0.04479 -4.703135,0.851044 -2.105214,0.806252 -3.045842,2.418757 V 33.566933 H 86.151925 V 10.051237 h 6.584394 v 4.747931 q 1.209379,-2.373966 3.090635,-3.71772 1.926047,-1.3437537 4.076054,-1.3885455 0.492712,0 0.716672,0 0.22396,0 0.44791,0.044792 z m 13.07923,17.827137 q -2.95625,0 -5.33022,-0.940628 -2.32917,-0.98542 -3.98647,-2.642716 -1.61251,-1.657297 -2.46355,-3.807304 -0.85104,-2.194798 -0.85104,-4.568763 0,-2.553133 0.85104,-4.792723 0.85104,-2.284382 2.46355,-3.98647 1.6125,-1.702089 3.94168,-2.687508 2.37396,-0.9854201 5.37501,-0.9854201 3.00105,0 5.33023,0.9854201 2.32917,0.985419 3.94168,2.687508 1.6125,1.657296 2.41875,3.852095 0.85105,2.194798 0.85105,4.613555 0,0.627085 -0.0448,1.254171 -0.0448,0.582293 -0.13438,1.030211 h -17.37922 q 0.17917,2.373965 1.70209,3.628136 1.56771,1.209379 3.53855,1.209379 1.56772,0 3.00105,-0.761461 1.47813,-0.761461 1.97084,-2.060423 l 6.09169,1.702088 q -1.38855,2.777092 -4.30002,4.523972 -2.91146,1.746881 -6.98752,1.746881 z m 4.97189,-14.42296 q -0.22396,-2.23959 -1.6125,-3.538553 -1.38855,-1.298962 -3.44897,-1.298962 -2.10521,0 -3.49376,1.343754 -1.34375,1.298962 -1.56771,3.493761 z m 22.03757,14.42296 q -3.00105,0 -5.37501,-0.98542 -2.32918,-0.98542 -3.94168,-2.642716 -1.6125,-1.702089 -2.46355,-3.896887 -0.80625,-2.23959 -0.80625,-4.658347 0,-2.418758 0.80625,-4.613556 0.85105,-2.23959 2.46355,-3.896887 1.6125,-1.702088 3.94168,-2.687508 2.37396,-1.0302111 5.37501,-1.0302111 3.00106,0 5.33023,1.0302111 2.32917,0.98542 3.94168,2.687508 1.6125,1.657297 2.46355,3.896887 0.85104,2.194798 0.85104,4.613556 0,2.418757 -0.85104,4.658347 -0.80626,2.194798 -2.41876,3.896887 -1.61251,1.657296 -3.98647,2.642716 -2.32917,0.98542 -5.33023,0.98542 z m -5.24064,-12.18337 q 0,2.777091 1.47813,4.47918 1.47813,1.657296 3.76251,1.657296 1.1198,0 2.06043,-0.447918 0.94063,-0.447918 1.6125,-1.25417 0.71667,-0.806252 1.1198,-1.926047 0.40312,-1.164587 0.40312,-2.508341 0,-2.777092 -1.47813,-4.434389 -1.47813,-1.702088 -3.71772,-1.702088 -1.11979,0 -2.10521,0.447918 -0.94063,0.447918 -1.6573,1.25417 -0.67187,0.806253 -1.075,1.97084 -0.40313,1.119795 -0.40313,2.463549 z m 30.63763,12.18337 q -3.00105,0 -5.91252,-0.940628 -2.91147,-0.98542 -4.9271,-2.821884 l 2.55313,-4.389596 q 2.15001,1.478129 4.16564,2.284382 2.06042,0.806252 3.94168,0.806252 1.38854,0 2.15001,-0.49271 0.76146,-0.49271 0.76146,-1.433337 0,-0.940628 -0.98542,-1.47813 -0.94063,-0.582293 -3.35939,-1.209378 -2.37396,-0.671877 -4.03126,-1.298963 -1.61251,-0.627085 -2.64272,-1.388546 -1.03021,-0.76146 -1.47813,-1.74688 -0.44791,-0.985419 -0.44791,-2.329173 0,-1.791672 0.71666,-3.269802 0.71667,-1.478129 1.97084,-2.508341 1.25417,-1.030211 2.95626,-1.612505 1.74688,-0.5822931 3.76251,-0.5822931 2.64272,0 4.9271,0.7166691 2.32918,0.716669 4.47918,2.597924 l -2.77709,4.300013 q -2.01563,-1.388546 -3.58334,-2.015631 -1.56772,-0.627085 -3.04585,-0.627085 -1.16458,0 -1.97084,0.49271 -0.80625,0.447918 -0.80625,1.478129 0,0.98542 0.85105,1.47813 0.89583,0.492709 3.2698,1.075003 2.50834,0.671877 4.21043,1.343754 1.74688,0.671877 2.82188,1.522921 1.075,0.806253 1.56771,1.881256 0.49271,1.075003 0.49271,2.553132 0,3.493761 -2.59792,5.554184 -2.59793,2.060423 -7.03231,2.060423 z"
       id="text1"
       aria-label="creos" />
  </g>
</svg>
